<?xml version="1.0" encoding="utf-8"?>
<!-- Generator: Adobe Illustrator 27.7.0, SVG Export Plug-In . SVG Version: 6.00 Build 0)  -->
<svg version="1.1" id="Ebene_1" xmlns="http://www.w3.org/2000/svg" xmlns:xlink="http://www.w3.org/1999/xlink" x="0px" y="0px"
	 viewBox="0 0 570 500" style="enable-background:new 0 0 570 500;" xml:space="preserve">
<style type="text/css">
	.st0{fill:#FFFFFF;}
	.st1{fill:none;}
	.st2{fill:#FEEB2B;}
</style>
<g>
	<polygon points="527.4,377.4 42.5,377.4 42.5,321.4 527.4,321.4 	"/>
	<g id="ELEKTRO">
		<polygon id="E_1_" class="st0" points="106.8,339.2 106.8,331.8 88.5,331.8 88.5,363.8 106.8,363.8 106.8,356.1 96.1,356.1 
			96.1,350.2 106.8,350.2 106.8,342.8 96.1,342.8 96.1,339.2 		"/>
		<polygon id="L" class="st0" points="163.8,356.4 163.8,331.8 156.1,331.8 156.1,363.8 172.1,363.8 172.1,356.4 		"/>
		<polygon id="E" class="st0" points="246.1,339.2 246.1,331.8 227.8,331.8 227.8,363.8 246.1,363.8 246.1,356.1 235.4,356.1 
			235.4,350.2 246.1,350.2 246.1,342.8 235.4,342.8 235.4,339.2 		"/>
		<polygon id="K" class="st0" points="298.4,346.1 309.7,331.8 300.3,331.8 293.6,340.2 293.6,331.8 285.9,331.8 285.9,363.8 
			293.6,363.8 293.6,352.5 301.4,363.8 310.5,363.8 		"/>
		<polygon id="T" class="st0" points="339.7,331.8 339.7,339.4 345.1,339.4 345.1,363.8 352.8,363.8 352.8,339.4 358.3,339.4 
			358.3,331.8 		"/>
		<g id="R">
			<path class="st1" d="M408,339.5c-0.3-0.1-1-0.3-2.8-0.3h-0.6v4.2h0.8c2.1,0,2.9-0.3,3.2-0.5c0.2-0.1,0.6-0.4,0.6-1.6
				c0-0.5-0.1-0.8-0.3-1.2C408.7,339.9,408.4,339.6,408,339.5z"/>
			<path class="st0" d="M408.7,348.9l1.1-0.4c1.7-0.6,3-1.5,3.8-2.7s1.2-2.6,1.2-4.4c0-1.7-0.4-3.1-1.1-4.4c-0.8-1.2-1.7-2-2.9-2.6
				c-1.3-0.5-3.5-0.8-6.7-0.8H399v28.1h3.8V349h2.1l6.8,12.7h4L408.7,348.9z M402.7,345.4v-8.1h2.5c1.7,0,2.8,0.1,3.5,0.4
				s1.4,0.7,1.8,1.4c0.4,0.7,0.7,1.4,0.7,2.3c0,1.8-0.8,2.7-1.5,3.2c-0.9,0.6-2.3,0.9-4.3,0.9L402.7,345.4L402.7,345.4z"/>
			<path class="st0" d="M409.7,339.6c-0.3-0.5-0.8-0.8-1.4-1c-0.6-0.2-1.6-0.3-3.1-0.3h-1.6v6.2h1.8c1.8,0,3.1-0.2,3.8-0.7
				c0.7-0.5,1-1.3,1-2.4C410.2,340.8,410,340.1,409.7,339.6z M408.6,342.9c-0.3,0.2-1.1,0.5-3.2,0.5h-0.8v-4.2h0.6
				c1.8,0,2.5,0.2,2.8,0.3c0.4,0.1,0.7,0.4,0.9,0.7c0.2,0.3,0.3,0.7,0.3,1.2C409.2,342.5,408.8,342.9,408.6,342.9z"/>
			<path class="st0" d="M411.4,349.9c1.6-0.7,2.8-1.7,3.7-2.9c1.1-1.5,1.6-3.4,1.6-5.5c0-2-0.5-3.9-1.4-5.4c-1-1.5-2.3-2.7-3.8-3.3
				c-1.5-0.6-4-1-7.5-1h-7v32h7.7V353l5.7,10.8h8.4L411.4,349.9z M404.2,350h-0.5v12.7H398v-30h6c3.3,0,5.7,0.3,7.1,0.9
				c1.4,0.6,2.5,1.6,3.4,2.9c0.9,1.4,1.3,3,1.3,4.9c0,2-0.5,3.6-1.4,5c-0.9,1.3-2.4,2.3-4.3,3l7.1,13.3H411L404.2,350z"/>
			<path class="st0" d="M410.1,349.4c1.9-0.7,3.3-1.7,4.3-3c0.9-1.3,1.4-3,1.4-5c0-1.9-0.4-3.5-1.3-4.9c-0.9-1.4-2-2.4-3.4-2.9
				c-1.4-0.6-3.8-0.9-7.1-0.9h-6v30h5.7V350h0.5l6.8,12.7h6.2L410.1,349.4z M404.8,349h-2.1v12.7h-3.8v-28.1h5.1
				c3.2,0,5.4,0.3,6.7,0.8c1.2,0.5,2.2,1.4,2.9,2.6c0.8,1.2,1.1,2.7,1.1,4.4c0,1.7-0.4,3.2-1.2,4.4c-0.8,1.1-2.1,2-3.8,2.7l-1.1,0.4
				l6.9,12.9h-4L404.8,349z"/>
			<path class="st0" d="M411.2,341.4c0-0.8-0.2-1.6-0.7-2.3c-0.5-0.7-1.1-1.1-1.8-1.4c-0.7-0.3-1.8-0.4-3.5-0.4h-2.5v8.1h2.8
				c2,0,3.4-0.3,4.3-0.9C410.4,344,411.2,343.1,411.2,341.4z M405.4,344.4h-1.8v-6.2h1.6c1.5,0,2.6,0.1,3.1,0.3c0.6,0.2,1,0.6,1.4,1
				c0.3,0.5,0.5,1.1,0.5,1.7c0,1.1-0.3,1.9-1,2.4C408.5,344.2,407.3,344.4,405.4,344.4z"/>
		</g>
		<g id="O">
			<path class="st1" d="M478.6,341.1c-1.7-1.8-3.8-2.7-6.3-2.7s-4.6,0.8-6.3,2.6c-1.7,1.7-2.5,4-2.5,6.7c0,3,1,5.4,3.2,7.1
				c1.7,1.4,3.6,2,5.8,2c2.4,0,4.5-0.9,6.2-2.6c1.7-1.8,2.6-3.9,2.6-6.6S480.3,343,478.6,341.1z"/>
			<path class="st0" d="M482.6,337.2c-2.9-2.9-6.3-4.3-10.3-4.3c-2.6,0-5.1,0.7-7.4,2s-4.1,3.1-5.4,5.4c-1.3,2.2-2,4.7-2,7.4
				c0,4.1,1.4,7.5,4.2,10.4s6.3,4.4,10.5,4.4c4.1,0,7.4-1.4,10.3-4.3c2.9-2.9,4.2-6.3,4.2-10.4C486.9,343.6,485.4,340.1,482.6,337.2
				z M480,355.8c-2.1,2.1-4.7,3.2-7.6,3.2c-2.6,0-5-0.8-7-2.5c-2.6-2.1-3.9-5-3.9-8.6c0-3.2,1.1-5.9,3.1-8c2.1-2.1,4.7-3.2,7.7-3.2
				s5.6,1.1,7.7,3.3c2.1,2.2,3.2,4.8,3.2,7.9S482.1,353.5,480,355.8z"/>
			<path class="st0" d="M479.3,340.5c-1.9-2-4.3-3-7-3c-2.8,0-5.1,1-7,2.9c-1.9,1.9-2.8,4.4-2.8,7.4c0,3.3,1.2,6,3.6,7.9
				c1.9,1.5,4,2.3,6.4,2.3c2.7,0,5-1,6.9-2.9c1.9-2,2.9-4.4,2.9-7.2S481.2,342.5,479.3,340.5z M478.6,354.4
				c-1.7,1.8-3.8,2.6-6.2,2.6c-2.2,0-4.1-0.7-5.8-2c-2.2-1.7-3.2-4.1-3.2-7.1c0-2.7,0.9-5,2.5-6.7c1.7-1.8,3.8-2.6,6.3-2.6
				s4.6,0.9,6.3,2.7c1.7,1.8,2.6,4,2.6,6.6S480.3,352.5,478.6,354.4z"/>
			<path class="st0" d="M484,335.9c-3.2-3.3-7.1-4.9-11.6-4.9c-3,0-5.8,0.8-8.3,2.2c-2.6,1.5-4.6,3.5-6.1,6.1
				c-1.5,2.5-2.2,5.4-2.2,8.4c0,4.5,1.6,8.5,4.7,11.8c3.2,3.3,7.2,5,11.9,5c4.6,0,8.5-1.6,11.7-4.8c3.2-3.2,4.8-7.2,4.8-11.8
				C488.8,343.1,487.2,339.1,484,335.9z M483.3,358.9c-3,3-6.7,4.6-11,4.6c-4.5,0-8.2-1.6-11.2-4.7s-4.5-6.8-4.5-11.1
				c0-2.9,0.7-5.5,2.1-7.9c1.4-2.4,3.3-4.3,5.7-5.7c2.4-1.4,5.1-2.1,7.8-2.1c4.2,0,7.9,1.5,11,4.6c3,3.1,4.6,6.8,4.6,11.2
				S486.3,355.9,483.3,358.9z"/>
			<path class="st0" d="M483.3,336.5c-3.1-3.1-6.7-4.6-11-4.6c-2.8,0-5.4,0.7-7.8,2.1c-2.4,1.4-4.3,3.3-5.7,5.7
				c-1.4,2.4-2.1,5-2.1,7.9c0,4.3,1.5,8,4.5,11.1s6.7,4.7,11.2,4.7c4.3,0,8-1.5,11-4.6c3-3,4.5-6.7,4.5-11.1
				C487.8,343.4,486.3,339.6,483.3,336.5z M482.6,358.2c-2.8,2.9-6.2,4.3-10.3,4.3c-4.3,0-7.7-1.4-10.5-4.4s-4.2-6.4-4.2-10.4
				c0-2.7,0.7-5.2,2-7.4c1.3-2.2,3.1-4.1,5.4-5.4s4.7-2,7.4-2c4,0,7.4,1.4,10.3,4.3c2.9,2.9,4.3,6.4,4.3,10.6
				C486.9,351.9,485.5,355.4,482.6,358.2z"/>
			<path class="st0" d="M480,339.9c-2.1-2.2-4.7-3.3-7.7-3.3s-5.6,1.1-7.7,3.2c-2.1,2.1-3.1,4.8-3.1,8c0,3.6,1.3,6.5,3.9,8.6
				c2,1.6,4.4,2.5,7,2.5c3,0,5.5-1.1,7.6-3.2c2.1-2.1,3.1-4.8,3.1-7.9S482,342,480,339.9z M479.3,355c-1.9,2-4.2,2.9-6.9,2.9
				c-2.4,0-4.5-0.8-6.4-2.3c-2.4-1.9-3.6-4.6-3.6-7.9c0-3,0.9-5.4,2.8-7.4c1.9-1.9,4.2-2.9,7-2.9c2.7,0,5.1,1,7,3
				c1.9,2,2.9,4.4,2.9,7.3S481.2,353,479.3,355z"/>
		</g>
	</g>
	<g>
		<path d="M526,197.9H44c-1.6,0-2.9-1.3-2.9-2.9s1.3-2.9,2.9-2.9h482c1.6,0,2.9,1.3,2.9,2.9S527.6,197.9,526,197.9z"/>
		<path d="M526,206.9H44c-1.6,0-2.9-1.3-2.9-2.9s1.3-2.9,2.9-2.9h482c1.6,0,2.9,1.3,2.9,2.9S527.6,206.9,526,206.9z"/>
		<path d="M526,215.9H44c-1.6,0-2.9-1.3-2.9-2.9s1.3-2.9,2.9-2.9h482c1.6,0,2.9,1.3,2.9,2.9S527.6,215.9,526,215.9z"/>
		<path d="M526,225H44c-1.6,0-2.9-1.3-2.9-2.9c0-1.6,1.3-2.9,2.9-2.9h482c1.6,0,2.9,1.3,2.9,2.9C528.8,223.8,527.6,225,526,225z"/>
		<path d="M526,234H44c-1.6,0-2.9-1.3-2.9-2.9c0-1.6,1.3-2.9,2.9-2.9h482c1.6,0,2.9,1.3,2.9,2.9C528.8,232.8,527.6,234,526,234z"/>
		<path d="M526,243.1H44c-1.6,0-2.9-1.3-2.9-2.9s1.3-2.9,2.9-2.9h482c1.6,0,2.9,1.3,2.9,2.9S527.6,243.1,526,243.1z"/>
		<path d="M526,252.1H44c-1.6,0-2.9-1.3-2.9-2.9s1.3-2.9,2.9-2.9h482c1.6,0,2.9,1.3,2.9,2.9S527.6,252.1,526,252.1z"/>
		<path d="M526,261.1H44c-1.6,0-2.9-1.3-2.9-2.9s1.3-2.9,2.9-2.9h482c1.6,0,2.9,1.3,2.9,2.9S527.6,261.1,526,261.1z"/>
		<path d="M526,270.2H44c-1.6,0-2.9-1.3-2.9-2.9s1.3-2.9,2.9-2.9h482c1.6,0,2.9,1.3,2.9,2.9S527.6,270.2,526,270.2z"/>
		<path d="M526,279.2H44c-1.6,0-2.9-1.3-2.9-2.9s1.3-2.9,2.9-2.9h482c1.6,0,2.9,1.3,2.9,2.9C528.8,278,527.6,279.2,526,279.2z"/>
		<path d="M526,288.3H44c-1.6,0-2.9-1.3-2.9-2.9c0-1.6,1.3-2.9,2.9-2.9h482c1.6,0,2.9,1.3,2.9,2.9C528.9,287,527.6,288.3,526,288.3z
			"/>
		<path d="M526,297.3H44c-1.6,0-2.9-1.3-2.9-2.9c0-1.6,1.3-2.9,2.9-2.9h482c1.6,0,2.9,1.3,2.9,2.9C528.9,296,527.6,297.3,526,297.3z
			"/>
		<path d="M526,306.4H44c-1.6,0-2.9-1.3-2.9-2.9s1.3-2.9,2.9-2.9h482c1.6,0,2.9,1.3,2.9,2.9S527.6,306.4,526,306.4z"/>
		<path d="M526,315.4H44c-1.6,0-2.9-1.3-2.9-2.9s1.3-2.9,2.9-2.9h482c1.6,0,2.9,1.3,2.9,2.9S527.6,315.4,526,315.4z"/>
	</g>
	<g id="Mathis">
		<g id="Ma">
			<g id="Schatten">
				<path d="M213.2,306.9c-3.1,0-5.9-0.8-8.4-2.2c2.9,3.1,6.7,4.9,11.7,4.9c8.7,0,15.2-3.6,22.5-9.9l-0.2-5.4
					C230.2,302.4,223.1,306.9,213.2,306.9z"/>
				<path d="M231.5,444.5l5.2,13.5l-32.6-153.7c-1-0.7-1.9-1.4-2.8-2.4L231.5,444.5z"/>
				<path d="M268.8,192.2c5.4,7.7,4.4,20.3,0.9,39.5l-9.8,56.1c-0.9,5-0.6,9-0.3,13.3c0.1,0.8,0.1,1.6,0.2,2.4v0.3h-0.3l-16.9,0.4
					l0.1,2.8l20.1-0.4c-0.3-5.3-0.9-9.9,0.1-15.8l9.8-56.1C276.9,211.8,277.2,199.1,268.8,192.2z"/>
				<polygon points="138.9,319.9 141.4,328 150.3,239.1 147.8,232.3 				"/>
				<path d="M243.2,206.8c-8.9,0-11.4,6-14.6,13.6l-0.1,0.2l-0.3-0.1l-15-3.5c-0.2,0.6-0.4,1.2-0.6,1.8l18.9,4.4
					c3.3-7.7,5.9-13.8,14.9-13.8c1.2,0,2.3,0.1,3.2,0.4c-0.2-0.4-0.4-0.7-0.7-1C247.9,207.4,245.9,206.8,243.2,206.8z"/>
				<polygon points="129.1,178 102.9,86.8 102,91.1 128.5,183 				"/>
				<path d="M195.7,274.2c0.3-1.7,0.6-3.3,1-4.9L149.6,47l-0.9,6.8l46.9,221C195.6,274.6,195.6,274.5,195.7,274.2z"/>
				<polygon points="89.8,297.2 91.8,306.9 105.5,219 103.3,211.5 				"/>
				<path class="st1" d="M259.1,301.2c-0.3-4.3-0.6-8.4,0.3-13.5l9.8-56.1c3.5-19.3,4.5-31.9-1-39.3c-3.6-4.9-10.1-7.7-21.1-9
					c-1-0.1-1.9-0.2-2.9-0.2c-15.8,0-29.6,15.9-34.3,32.4l18.3,4.2c3.1-7.4,5.9-13.7,15.1-13.7c2.9,0,5,0.8,6.4,2.4
					c1.7,2,2.1,5.4,1.3,10.2l-1.2,9h-0.2c-32.1,5.5-48.4,19.9-53.1,46.7c-0.2,0.8-0.3,1.7-0.3,2.4l-0.2,1.9l-0.4-1.9l-49-230.9
					l-17.8,140.4l-0.4-1.5L99.7,85.1l-26.9,139l15.6,77.8l14.7-93.3l0.4,1.3L138,323.4l9.5-93.8l0.5,1.3L232.4,451l-32.1-151.4
					l0.8,1.1c3.1,3.8,7.2,5.7,12.2,5.7c9.9,0,16.9-4.7,25.7-12.9l0.5-0.5l0.3,10.8l19.4-0.4C259.1,302.6,259.1,301.9,259.1,301.2z
					 M245.3,252.3l-2.6,17.7l-1,1c-5.1,5.2-12,12.4-17.8,12.5h-0.1c-1.9,0-3.4-0.6-4.4-1.9c-1.8-2.1-2.2-5.8-1.3-10.9
					c1.7-9.7,11-16.2,26.8-18.8l0.4-0.1L245.3,252.3z"/>
				<path class="st1" d="M223.9,283c5.5,0,12.6-7.4,17.3-12.3l0.8-0.9l2-13.6c-11.5,2.6-20.6,8-22.4,17.7c-0.7,3.9-0.5,6.7,0.2,8.7
					C222.5,282.8,223.1,283,223.9,283L223.9,283z"/>
				<path d="M221.7,274c1.7-9.8,10.9-15.1,22.4-17.7l0.5-3.5c-10.7,1.8-23.7,6.4-25.8,18.2c-0.9,4.9-0.5,8.5,1.2,10.4
					c0.5,0.6,1.2,1.1,2,1.3C221.2,280.6,221,277.8,221.7,274z"/>
				<path d="M239.1,293.8c-8.8,8.2-15.9,12.9-25.9,12.9c-3.6,0-6.7-1-9.2-2.8c0.3,0.3,0.5,0.6,0.8,0.9c2.4,1.4,5.3,2.2,8.4,2.2
					c9.9,0,17-4.6,25.6-12.6l0.2,5.4c0.1-0.1,0.2-0.2,0.3-0.3L239.1,293.8z"/>
				<path d="M200.7,300.8l30.1,141.8l0.7,1.9l-30.2-142.6c0.9,0.9,1.8,1.7,2.8,2.4l-0.1-0.5C202.8,302.9,201.7,301.9,200.7,300.8z"
					/>
				<path d="M259.9,303.9v-0.3c-0.1-0.8-0.1-1.6-0.2-2.4c-0.3-4.3-0.6-8.3,0.3-13.3l9.8-56.1c3.5-19.2,4.5-31.9-0.9-39.5
					c-0.3-0.3-0.6-0.5-1-0.7c6,7.3,5.3,19.7,1.6,40.2l-9.8,56.1c-1,6-0.4,10.6-0.1,15.8l-16.9,0.4v0.3l16.9-0.4L259.9,303.9z"/>
				<polygon points="147.6,231 138.7,319.1 138.9,319.9 147.8,232.3 150.3,239.1 150.4,238.4 				"/>
				<path d="M243.2,206.4c-9,0-11.6,6-14.9,13.8l-14.9-3.5c0,0.1-0.1,0.2-0.1,0.3l15,3.5l0.3,0.1l0.1-0.2
					c3.2-7.6,5.7-13.6,14.6-13.6c2.7,0,4.7,0.7,5.9,2.1c0.3,0.3,0.5,0.7,0.7,1c0.1,0,0.3,0.1,0.4,0.1
					C249,207.4,246.5,206.4,243.2,206.4z"/>
				<polygon points="128.6,184.6 129.4,178.8 129.1,178 128.5,183 102,91.1 101.9,91.8 				"/>
				<path d="M195.6,276.8c0.1-0.8,0.2-1.6,0.4-2.5c0.3-1.5,0.5-2.9,0.9-4.2l-0.2-0.7c-0.4,1.6-0.7,3.2-1,4.9c0,0.2-0.1,0.4-0.1,0.6
					l-46.9-221l-0.1,1L195.6,276.8z"/>
				<polygon points="103.2,210.1 89.7,296.3 89.8,297.2 103.3,211.5 105.5,219 105.7,218.2 				"/>
				<path d="M218.1,270.8c-0.9,5.1-0.5,8.8,1.3,10.9c1.1,1.3,2.5,1.9,4.4,1.9h0.1c5.8-0.1,12.7-7.3,17.8-12.5l1-1l2.6-17.7l0.1-0.4
					l-0.4,0.1C229.1,254.5,219.8,261,218.1,270.8z M244.4,256.1l-2,13.8c-4.9,5-12.4,13.3-18.5,13.4c-0.7,0-1.3-0.1-1.9-0.3
					c-3.2-0.9-5-4.6-3.6-12.2c1.9-10.9,13.1-16.4,26.5-18.5L244.4,256.1z"/>
				<path d="M242.1,269.8l-0.8,0.9c-4.7,4.9-11.8,12.3-17.3,12.3h-0.1c-0.7,0-1.4-0.1-1.9-0.3c0,0.1,0.1,0.3,0.1,0.4
					c0.6,0.2,1.2,0.3,1.9,0.3c6-0.1,13.6-8.3,18.5-13.4l2-13.8c-0.1,0-0.2,0.1-0.3,0.1L242.1,269.8z"/>
				<path d="M218.4,270.8c-1.3,7.5,0.4,11.2,3.6,12.2c-0.1-0.1-0.1-0.3-0.1-0.4c-0.8-0.3-1.4-0.7-2-1.3c-1.6-1.9-2-5.5-1.2-10.4
					c2.1-11.8,15.1-16.4,25.8-18.2l-0.5,3.5c0.1,0,0.2-0.1,0.3-0.1l0.6-3.8C231.6,254.5,220.4,260,218.4,270.8z"/>
			</g>
			<path id="Ma_1_" class="st2" d="M259.6,287.8l9.8-56.1c3.8-20.5,4.4-32.9-1.6-40.2c-3.8-4.7-10.4-7.3-20.8-8.5
				c-17.6-2.1-32.9,15.8-37.6,32.8l3.9,0.9l14.9,3.5c3.3-7.8,5.9-13.8,14.9-13.8c3.3,0,5.8,1,6.9,3.6c0.9,1.9,1.1,4.7,0.4,8.5
				l-1.2,8.8c-30.4,5.2-46.8,18.5-52.5,42.8c-0.3,1.4-0.6,2.8-0.9,4.2c-0.1,0.8-0.3,1.6-0.4,2.5l-47.1-222L146,43.8l-16.6,135
				l-0.7,5.8l-26.8-92.8l-2.3-8L72.5,224.1l16,79.6l1.2-7.5l13.5-86.2l2.5,8.2l32.4,106.7l0.6-5.8l8.9-88.2l2.8,7.4l83,216.5
				l-2.6-12.3l-30.1-141.8c1,1.2,2.1,2.2,3.3,3.1l0,0c2.5,1.8,5.6,2.8,9.2,2.8c10,0,17.1-4.8,25.9-12.9l0.2,5.8l0.1,4.5l3.2-0.1
				l16.9-0.4C259.2,298.4,258.6,293.8,259.6,287.8z M218.4,270.8c1.9-10.9,13.1-16.4,26.5-18.5l-0.6,3.8l-2,13.8
				c-4.9,5-12.4,13.3-18.5,13.4c-0.7,0-1.3-0.1-1.9-0.3C218.9,282,217.1,278.5,218.4,270.8z"/>
		</g>
		<g id="t">
			<path d="M295.8,306.4c-4.1,0-7.8-1.1-10.8-3.3c3.5,4.2,8.5,6.4,14.1,6.4c6.5,0,13.1-3.4,13.2-3.3l4.2-24.2c-1,0.3-2.4,1-4.1,1.5
				l-3.4,19.6C308.9,303,302.3,306.4,295.8,306.4z"/>
			<polygon points="317.1,185.8 324.7,142.3 320.9,142.3 313.3,185.8 			"/>
			<path d="M312.4,213.8h16l4.5-24.9h-3.8l-3.9,21.9h-16c0,0-9.9,57.9-10.5,61.6c-0.5,3.3,0.6,7.8,4,8.7c-0.8-1.7-1-3.9-0.7-5.7
				C302.4,271.8,312.4,213.8,312.4,213.8z"/>
			<polygon points="281.5,210.8 280.9,213.8 287.6,213.8 288.1,210.8 			"/>
			<path class="st2" d="M298.6,272.3c0.6-3.7,10.5-61.6,10.5-61.6h16l3.9-21.9l0.5-3h-12.4h-3.8l7.6-43.5l0.5-3h-21.5l-7.8,46.5H282
				l-4.5,24.9h3.8h6.6l-0.5,3l-10.2,61.5c-2.6,13.5,1,23.1,7.6,27.8c3.1,2.2,6.8,3.3,10.8,3.3c6.5,0,13.1-3.3,13.2-3.3l3.4-19.6
				l0.8-4.5c-1.9,0.7-5.5,2.4-9.4,2.3c-0.4,0-0.8-0.1-1.1-0.2C299.2,280.1,298.1,275.6,298.6,272.3z"/>
		</g>
		<g id="h">
			<path d="M369.1,208.3c-5.7,0-15.9,11-16.2,13.9c-0.4,3.3-14.3,81.3-14.3,81.3l-16.2,0.1l-0.5,3.1l20-0.1c0,0,13.9-78,14.3-81.3
				c0.3-2.9,10.6-13.9,16.2-13.9c1,0,1.9,0.1,2.7,0.4C373.8,209.2,371.8,208.3,369.1,208.3z"/>
			<path d="M361.5,193.9l8.4-51.6h-3.8l-9.1,56.2C358.3,196.9,359.9,195.4,361.5,193.9z"/>
			<path d="M394.3,188.5c4.8,6.3,5,18,2.3,33.7l-14.4,81.3l-16.3,0.1l-0.5,3.1l20.1-0.1l14.4-81.3
				C403.1,206.5,402.2,193.4,394.3,188.5z"/>
			<path class="st2" d="M396.6,222.1c2.7-15.7,2.4-27.4-2.3-33.7c-2.6-3.5-6.6-5.3-12.2-5.3c-6.7,0-14.4,5-20.6,10.7
				c-1.6,1.5-3.2,3.1-4.5,4.6l9.1-56.2l0.5-3h-19.9l-28.1,164.2h3.8l16.2-0.1c0,0,13.9-78,14.3-81.3c0.3-2.9,10.6-13.9,16.2-13.9
				c2.7,0,4.8,0.9,6,3.4c1.4,3,1.6,8.4,0.1,17.1l-13,74.7h3.8l16.3-0.1L396.6,222.1z"/>
		</g>
		<g id="i">
			<polygon points="442.1,141.8 437.5,168.1 421.3,168.2 420.8,171.3 440.8,171.1 445.9,141.8 			"/>
			<polygon points="414.3,303.4 398.3,303.4 397.7,306.5 417.5,306.5 437.6,189 433.8,189 			"/>
			<polygon class="st2" points="433.8,189 434.3,185.9 414.7,185.9 394.4,303.4 398.3,303.4 414.3,303.4 			"/>
			<polygon class="st2" points="442.1,141.8 442.6,138.8 422.7,138.8 417.5,168.3 421.3,168.2 437.5,168.1 			"/>
		</g>
		<g id="s">
			<path d="M444.4,252.9c6.2,7.2,16.3,8.5,22,12C462.9,259.5,452.2,258.8,444.4,252.9z"/>
			<path d="M478,221.5l20.2-4.4c0.4-16.6-4-24.9-9.6-28.9c4,4.7,6.7,12.7,6.4,25.9l-16.9,3.7C478.1,219.1,478.1,220.4,478,221.5z"/>
			<path d="M487.4,264.5c-2.9,29.2-23.5,42.4-38.7,42.4c-4.4,0-8.7-0.6-12.3-3.1c4,5,9.8,6.1,15.6,6.1c15.2,0,35.7-13.2,38.7-42.4
				c1.7-16.6-2.7-24.5-8.7-29C486.1,243.3,488.7,251.1,487.4,264.5z"/>
			<path d="M468.6,205.8c-6.7,0-10.8,6.7-11.9,13.9c-0.6,4.2,1.1,6.4,3.9,8c-0.7-1.3-1-2.9-0.6-5c1.1-7.1,5.2-13.9,11.9-13.9
				c0.5,0,1,0.1,1.5,0.2C472.4,207,470.8,205.8,468.6,205.8z"/>
			<path d="M452,281.8c-1.3-2.5-1.6-6.4-1.6-11.6l-3.2,0.7C447.4,277,448.6,280.6,452,281.8z"/>
			<path class="st2" d="M488.6,188.2c-4.7-5.5-11-6.7-16.2-6.7c-12.6,0-28.6,10.9-34.4,34.8c-5.3,21.6-0.6,31.3,6.5,36.6
				c7.8,5.9,18.5,6.5,22,12c1,1.6,1.4,3.6,1,6.2c-1.3,8-6.4,11.1-12.5,11.1c-1.1,0-2.1-0.2-2.9-0.5c-3.4-1.2-4.6-4.9-4.8-10.8
				c0-1.2-0.1-2.4,0-3.8l-19.5,4.4c-1.1,19.2,2.8,28.1,8.7,32.2c3.6,2.5,7.9,3.1,12.3,3.1c15.2,0,35.7-13.2,38.7-42.4
				c1.3-13.3-1.2-21.1-5.4-25.9c-6.2-7.2-15.9-7.9-21.4-10.9c-2.9-1.6-4.6-3.8-3.9-8c1.1-7.1,5.2-13.9,11.9-13.9
				c2.3,0,3.8,1.3,4.8,3.3c1.4,2.7,1.6,6.5,1.4,9.6l3.3-0.7l16.9-3.7C495.3,200.9,492.6,193,488.6,188.2z"/>
		</g>
	</g>
</g>
</svg>
